<svg xmlns="http://www.w3.org/2000/svg" viewBox="0 0 100 100"><defs><style>.cls-1{isolation:isolate;}.cls-2{fill:#006bba;}.cls-3{fill:#ff81b9;}.cls-4{fill:#fc0080;}.cls-5{fill:#ffc6e3;}</style></defs><g class="tetris" data-name="Layer 2"><g id="Layer_1-2" data-name="Layer 1"><g class="cls-1"><polygon class="cls-2" points="51.88 17.49 61.81 20.99 44.29 38.85 34.36 35.35 51.88 17.49"/><polygon class="cls-3" points="36.67 0 46.61 3.5 61.81 20.99 51.88 17.49 36.67 0"/><polygon class="cls-4" points="1.36 70.42 18.89 52.55 3.68 35.06 36.63 1.47 50.52 17.45 33 35.31 48.21 52.8 15.25 86.4 1.36 70.42"/><path class="cls-5" d="M36.59,3,49.16,17.41,32.93,34l-1.29,1.32,1.21,1.39,14,16.1L15.3,84.93,2.72,70.46,19,53.91l1.3-1.32L19,51.2,5,35.1,36.59,3M36.68,0,2.32,35,17.53,52.51,0,70.38,15.21,87.87l34.36-35L34.36,35.35,51.88,17.49,36.68,0Z"/><polygon class="cls-3" points="34.36 35.35 44.29 38.85 59.5 56.35 49.57 52.84 34.36 35.35"/><polygon class="cls-2" points="49.57 52.84 59.5 56.35 25.14 91.38 15.21 87.87 49.57 52.84"/></g></g></g></svg>
